<?xml version="1.0" standalone="no"?><!DOCTYPE svg PUBLIC "-//W3C//DTD SVG 1.1//EN" "http://www.w3.org/Graphics/SVG/1.1/DTD/svg11.dtd"><svg t="1612600036772" class="icon" viewBox="0 0 1024 1024" version="1.1" xmlns="http://www.w3.org/2000/svg" p-id="3294" xmlns:xlink="http://www.w3.org/1999/xlink" width="128" height="128"><defs><style type="text/css"></style></defs><path d="M910.222222 833.479111V853.333333h-17.635555a509.667556 509.667556 0 0 1-761.173334 0H113.777778v-19.854222a510.691556 510.691556 0 0 1-6.826667-634.083555l81.92 81.578666A395.832889 395.832889 0 0 0 113.777778 512a382.862222 382.862222 0 0 0 40.96 170.666667H170.666667v-56.888889h56.888889v-56.888889h56.888888V512h56.888889V341.333333h56.888889v56.888889h56.888889v170.666667H398.222222v56.888889H341.333333v56.888889H284.444444v113.777777h-50.631111a396.970667 396.970667 0 0 0 556.373334 0H739.555556v-113.777777h-56.888889v-56.888889h-56.888889v-56.888889h-56.888889V398.222222h56.888889V341.333333h56.888889v170.666667h56.888889v56.888889h56.888888v56.888889h56.888889v56.888889h15.928889A382.862222 382.862222 0 0 0 910.222222 512a395.377778 395.377778 0 0 0-85.902222-244.622222l81.92-82.090667A511.431111 511.431111 0 0 1 910.222222 833.479111zM512 113.777778a393.671111 393.671111 0 0 0-195.697778 53.361778L232.675556 83.342222a509.269333 509.269333 0 0 1 538.737777-12.231111l-84.764444 84.650667A393.728 393.728 0 0 0 512 113.777778z" p-id="3295"></path></svg>